<svg xmlns="http://www.w3.org/2000/svg" xmlns:xlink="http://www.w3.org/1999/xlink" width="296" zoomAndPan="magnify" viewBox="0 0 222 39.749999" height="53" preserveAspectRatio="xMidYMid meet" version="1.0"><defs><g/></defs><g fill="#ffffff" fill-opacity="1"><g transform="translate(61.374579, 28.179054)"><g><path d="M 1.625 -8.328125 L 1.625 -13.53125 L 18.21875 -19.84375 L 18.21875 -16.171875 L 4.765625 -10.921875 L 18.21875 -5.6875 L 18.21875 -2.015625 Z M 1.625 -8.328125 "/></g></g><g transform="translate(81.224005, 28.179054)"><g><path d="M 18.6875 -10.96875 C 18.6875 -7.25 17.929688 -4.4375 16.421875 -2.53125 C 14.921875 -0.625 12.757812 0.328125 9.9375 0.328125 C 7.113281 0.328125 4.941406 -0.625 3.421875 -2.53125 C 1.910156 -4.4375 1.15625 -7.25 1.15625 -10.96875 C 1.15625 -14.6875 1.910156 -17.472656 3.421875 -19.328125 C 4.941406 -21.191406 7.113281 -22.125 9.9375 -22.125 C 12.757812 -22.125 14.921875 -21.191406 16.421875 -19.328125 C 17.929688 -17.472656 18.6875 -14.6875 18.6875 -10.96875 Z M 13.859375 -10.96875 C 13.859375 -15.90625 12.550781 -18.375 9.9375 -18.375 C 7.300781 -18.375 5.984375 -15.90625 5.984375 -10.96875 C 5.984375 -8.488281 6.316406 -6.609375 6.984375 -5.328125 C 7.648438 -4.054688 8.632812 -3.421875 9.9375 -3.421875 C 11.238281 -3.421875 12.21875 -4.054688 12.875 -5.328125 C 13.53125 -6.609375 13.859375 -8.488281 13.859375 -10.96875 Z M 13.859375 -10.96875 "/></g></g><g transform="translate(101.073431, 28.179054)"><g><path d="M 18.21875 -2.984375 C 15.601562 -0.773438 12.945312 0.328125 10.25 0.328125 C 7.445312 0.328125 5.253906 -0.660156 3.671875 -2.640625 C 2.085938 -4.617188 1.296875 -7.40625 1.296875 -11 C 1.296875 -18.414062 4.296875 -22.125 10.296875 -22.125 C 12.242188 -22.125 13.828125 -21.625 15.046875 -20.625 C 16.273438 -19.625 17.179688 -18.109375 17.765625 -16.078125 L 13.34375 -15.203125 C 12.769531 -17.316406 11.773438 -18.375 10.359375 -18.375 C 8.898438 -18.375 7.828125 -17.789062 7.140625 -16.625 C 6.460938 -15.46875 6.125 -13.59375 6.125 -11 C 6.125 -8.59375 6.484375 -6.738281 7.203125 -5.4375 C 7.921875 -4.132812 9.019531 -3.484375 10.5 -3.484375 C 11.070312 -3.484375 11.660156 -3.59375 12.265625 -3.8125 C 12.867188 -4.03125 13.398438 -4.320312 13.859375 -4.6875 L 13.859375 -8.484375 L 9.4375 -8.484375 L 9.4375 -12 L 18.21875 -12 Z M 18.21875 -2.984375 "/></g></g><g transform="translate(120.922857, 28.179054)"><g><path d="M 14.234375 0 L 9.015625 -9 L 6.96875 -6.703125 L 6.96875 0 L 2.203125 0 L 2.203125 -21.78125 L 6.96875 -21.78125 L 6.96875 -12.109375 L 14 -21.78125 L 19.546875 -21.78125 L 12.109375 -12.4375 L 19.84375 0 Z M 14.234375 0 "/></g></g><g transform="translate(140.772283, 28.179054)"><g><path d="M 1.625 -2.015625 L 1.625 -5.6875 L 15.0625 -10.921875 L 1.625 -16.171875 L 1.625 -19.84375 L 18.21875 -13.53125 L 18.21875 -8.328125 Z M 1.625 -2.015625 "/></g></g></g></svg>